# xmcd
#
# Track frame offsets: 
#        182
#        12787
#        26475
#        42787
#        57700
#        70425
#        83700
#        101175
#        117000
#        129900
#        145125
#        161300
#
# Disc length: 2356 seconds
#
# Revision: 2
# Processed by: cddbd v1.5PL3 Copyright (c) Steve Scherf et al.
# Submitted via: ExactAudioCopy v0.90b4
#
DISCID=9909320c
DTITLE=Mary-Ann Brandon - Delf appointed Homecoming Queen
DYEAR=1990
DGENRE=Blues
TTITLE0=Self appointed Homecoming Queen
TTITLE1=Use it or loos it
TTITLE2=It's a dirty Job
TTITLE3=Why do i love my man so
TTITLE4=Stone Blues
TTITLE5=New love
TTITLE6=Don't mess me Baby
TTITLE7=Mama he treats your Daughter mean
TTITLE8=It takes two
TTITLE9=A little meat on the side
TTITLE10=Drivin you out of my mind
TTITLE11=Black widow spider
EXTD=YEAR: 1990
EXTT0=
EXTT1=
EXTT2=
EXTT3=
EXTT4=
EXTT5=
EXTT6=
EXTT7=
EXTT8=
EXTT9=
EXTT10=
EXTT11=
PLAYORDER=
